<?xml version="1.0" encoding="UTF-8"?>
<svg id="Layer_2" xmlns="http://www.w3.org/2000/svg" viewBox="0 0 4550.78 1360.13">
  <defs>
    <style>
      .cls-1 {
        fill: #285a2c;
      }
    </style>
  </defs>
  <g id="Layer_1-2" data-name="Layer_1">
    <g>
      <path class="cls-1" d="M1581.69,698.99c-36.39,86.92,0,125.33,34.37,161.72,20.22,20.22,38.41,40.43,32.34,70.75-2.02,20.22-32.34,38.41-64.69,58.62-58.62,36.39-97.03,84.9-97.03,157.68,32.34-52.56,74.8-84.9,125.33-111.18,42.45-28.3,82.88-52.56,88.95-97.03,10.11-54.58-18.19-84.9-44.47-115.23-24.26-26.28-48.52-52.56-22.24-111.18l2.02-4.04c4.04-12.13,4.04-22.24-2.02-34.37-4.04-6.06-12.13-12.13-20.22-18.19-4.04-4.04-8.09-6.06-12.13-8.09,2.02-4.04,4.04-10.11,8.09-16.17,8.09-10.11,4.04-26.28-6.06-34.37-12.13-10.11-22.24-18.19-34.37-26.28-6.06-6.06-14.15-12.13-22.24-18.19,0-10.11,2.02-22.24,4.04-34.37,2.02-16.17,6.06-30.32,12.13-46.49v-2.02c2.02-4.04,2.02-10.11,2.02-14.15,0-10.11-4.04-20.22-12.13-28.3-6.06-6.06-14.15-10.11-24.26-14.15-10.11-2.02-22.24-4.04-38.41-4.04-54.58,2.02-97.03-4.04-127.35-18.19-26.28-12.13-44.47-30.32-52.56-58.62,0,0,0-2.02-2.02-4.04-74.8-149.59-200.13-250.67-345.68-299.18-147.57-46.49-315.36-40.43-477.08,30.32C324.32,130.95,203.03,238.09,122.17,359.38,53.44,460.45,15.03,571.63,2.9,682.82c-10.11,113.2,6.06,224.39,50.54,327.48,48.52,109.16,127.35,204.17,236.52,278.97,125.33,84.9,285.03,95.01,416.43,22.24,131.4-72.77,210.24-214.28,202.15-363.87-2.02-42.45,34.37-95.01,123.31-135.44,60.65-26.28,113.2-62.67,139.48-121.29,28.3-58.62,26.28-127.35-2.02-185.98,20.22,54.58,16.17,115.23-8.09,165.76-26.28,52.56-70.75,92.99-123.31,111.18,38.41-34.37,56.6-92.99,28.3-137.46-28.3-48.52-38.41-105.12-8.09-153.63-38.41,40.43-36.39,99.05-10.11,147.57,38.41,76.82-22.24,149.59-165.76,210.24-10.11-56.6-36.39-109.16-76.82-149.59-74.8-82.88-76.82-188,18.19-291.1,46.5-48.52,86.93-84.9,92.99-133.42-12.13,36.39-44.47,70.75-92.99,113.2-84.9,76.82-107.14,167.78-78.84,264.82-151.61-90.97-278.97-64.69-309.29-293.12-24.26,331.53,412.39,196.09,396.21,580.17-46.49-40.43-103.1-66.71-163.74-78.84-175.87-32.34-58.62-208.21-169.81-256.73,78.84,48.52,10.11,149.59,88.95,244.6-82.88-38.41-151.61-103.1-185.98-188-16.17-40.43-46.49-76.82-88.95-92.99,34.37,22.24,60.65,52.56,72.77,88.95,12.13,38.41,30.32,74.8,56.6,105.12-40.43-10.11-84.9-6.06-121.29,12.13,52.56-16.17,109.16-6.06,153.63,24.26,40.43,42.45,88.95,74.8,141.51,97.03-36.39,8.09-72.77,20.22-101.08,44.47-28.3,20.22-60.65,32.34-95.01,28.3,28.3,12.13,64.69,12.13,88.95-6.06,147.57-111.18,331.53,0,309.29,82.88-28.3,101.08-103.1,181.94-200.13,222.37-97.03,38.41-208.21,34.37-297.16-22.24-103.1-64.69-173.85-155.66-218.32-254.71-40.43-95.01-56.6-198.11-44.47-301.2,10.11-103.1,46.49-206.19,109.16-299.18,74.8-115.23,188-214.28,341.63-280.99,147.57-64.69,303.23-70.75,438.67-28.3,131.4,42.45,244.6,135.44,313.33,270.88,14.15,42.45,40.43,70.75,80.86,88.95,38.41,18.19,88.95,26.28,151.61,24.26h16.17c-4.04,16.17-8.09,30.32-12.13,46.49-2.02,18.19-4.04,36.39-4.04,56.6,0,10.11,4.04,18.19,12.13,24.26,12.13,6.06,22.24,14.15,34.37,22.24l14.15,10.11c-2.02,4.04-2.02,8.09-4.04,12.13h0c-2.02,12.13-4.04,22.24-2.02,34.37,2.02,8.09,8.09,16.17,16.17,20.22,8.09,2.02,14.15,4.04,18.19,8.09Z"/>
      <path class="cls-1" d="M775.6,276.49c18.19-18.19,18.19-54.58,0-113.2,20.22,30.32,26.28,68.73,20.22,105.12,14.15-26.28,20.22-56.6,12.13-84.9-8.09-28.3-28.3-52.56-52.56-66.71,4.04,16.17,4.04,34.37-4.04,50.54-16.17,38.41-6.06,80.86,24.26,109.16Z"/>
      <path class="cls-1" d="M915.08,274.47c12.13-16.17,8.09-46.49-12.13-90.97,18.19,24.26,28.3,52.56,28.3,82.88,8.09-22.24,8.09-48.52,0-68.73-10.11-22.24-28.3-40.43-50.54-48.52,6.06,12.13,6.06,28.3,4.04,40.43-10.11,32.34,4.04,66.71,30.32,84.9Z"/>
      <path class="cls-1" d="M991.9,335.12c16.17-12.13,20.22-44.47,12.13-95.01,12.13,28.3,14.15,60.65,6.06,90.97,14.15-20.22,22.24-44.47,18.19-70.75-4.04-24.26-18.19-46.49-38.41-60.65,2.02,14.15,0,30.32-6.06,42.45-18.19,30.32-14.15,66.71,8.09,92.99Z"/>
      <path class="cls-1" d="M890.83,403.85c16.17,10.11,42.45,4.04,80.86-16.17-20.22,16.17-44.47,26.28-70.75,28.3,20.22,6.06,42.45,6.06,60.65-4.04,18.19-10.11,32.34-26.28,38.41-46.49-12.13,6.06-24.26,8.09-36.39,6.06-28.3-6.06-56.6,6.06-72.77,32.34Z"/>
      <path class="cls-1" d="M842.31,353.31c12.13-12.13,12.13-38.41,4.04-76.82,10.11,22.24,14.15,46.49,8.09,70.75,12.13-16.17,16.17-36.39,12.13-56.6-6.06-18.19-16.17-36.39-34.37-46.49,4.04,12.13,2.02,24.26-4.04,34.37-12.13,24.26-6.06,54.58,14.15,74.8Z"/>
      <path class="cls-1" d="M791.77,399.81c10.11-20.22,0-50.54-30.32-92.99,24.26,20.22,40.43,48.52,44.47,78.84,6.06-24.26,0-50.54-14.15-70.75-14.15-20.22-36.39-34.37-60.65-40.43,8.09,12.13,12.13,28.3,12.13,42.45-4.04,34.37,16.17,68.73,48.52,82.88Z"/>
      <path class="cls-1" d="M761.45,466.51c2.02-20.22-18.19-42.45-56.6-70.75,26.28,10.11,48.52,30.32,64.69,54.58-4.04-22.24-16.17-42.45-36.39-56.6-18.19-14.15-42.45-18.19-64.69-14.15,10.11,8.09,20.22,18.19,24.26,32.34,8.09,30.32,36.39,52.56,68.73,54.58Z"/>
      <path class="cls-1" d="M694.74,349.27c-2.02-16.17-22.24-30.32-58.62-42.45,24.26,2.02,46.49,12.13,62.67,28.3-8.09-16.17-22.24-30.32-40.43-36.39-16.17-6.06-36.39-6.06-52.56,2.02,10.11,4.04,18.19,10.11,24.26,20.22,14.15,22.24,40.43,34.37,64.69,28.3Z"/>
      <path class="cls-1" d="M696.76,264.36c4.04-22.24-14.15-50.54-54.58-88.95,28.3,16.17,52.56,42.45,64.69,72.77,0-26.28-12.13-52.56-30.32-70.75-20.22-18.19-46.49-28.3-72.77-26.28,12.13,10.11,18.19,24.26,22.24,40.43,4.04,36.39,34.37,66.71,70.75,72.77Z"/>
      <path class="cls-1" d="M816.03,468.54c16.17,14.15,50.54,14.15,103.1-2.02-28.3,18.19-62.67,24.26-92.99,18.19,22.24,14.15,48.52,18.19,74.8,10.11,24.26-8.09,44.47-24.26,56.6-48.52-14.15,6.06-30.32,4.04-44.47-2.02-32.34-12.13-72.78-4.04-97.03,24.26Z"/>
      <path class="cls-1" d="M787.73,553.44c8.09-12.13,30.32-16.17,66.71-14.15-20.22-6.06-42.45-6.06-62.67,2.02,12.13-12.13,28.3-18.19,46.49-18.19,18.19,2.02,34.37,10.11,44.47,24.26-10.11-2.02-20.22,2.02-28.3,6.06-20.22,14.15-46.49,14.15-66.71,0Z"/>
      <path class="cls-1" d="M824.12,668.66c14.15-4.04,26.28-22.24,36.39-56.6,0,22.24-8.09,42.45-24.26,58.62,16.17-8.09,28.3-22.24,34.37-38.41,4.04-16.17,2.02-34.37-6.06-50.54-2.02,10.11-8.09,18.19-16.17,24.26-20.22,14.15-30.32,38.41-24.26,62.67Z"/>
      <path class="cls-1" d="M1082.87,395.76c-8.09-12.13-4.04-38.41,14.15-72.77-16.17,18.19-24.26,40.43-26.28,64.69-6.06-18.19-6.06-38.41,2.02-54.58,10.11-18.19,24.26-32.34,42.45-38.41-4.04,10.11-6.06,22.24-4.04,32.34,6.06,28.3-4.04,54.58-28.3,68.73Z"/>
      <path class="cls-1" d="M1056.59,484.71c-18.19-6.06-30.32-30.32-38.41-74.8-2.02,28.3,6.06,54.58,22.24,74.8-18.19-10.11-32.34-28.3-36.39-50.54-4.04-20.22,0-42.45,12.13-60.65,2.02,12.13,8.09,24.26,18.19,32.34,24.26,18.19,32.34,50.54,22.24,78.84Z"/>
      <path class="cls-1" d="M1034.35,543.33c-14.15,2.02-32.34-14.15-50.54-48.52,6.06,22.24,20.22,42.45,38.41,54.58-18.19-4.04-32.34-14.15-42.45-30.32-10.11-16.17-12.13-34.37-8.09-52.56,6.06,10.11,14.15,16.17,24.26,20.22,24.26,8.09,40.43,32.34,38.41,56.6Z"/>
      <path class="cls-1" d="M1032.33,616.11c-18.19,2.02-40.43-12.13-68.73-46.49,12.13,24.26,30.32,42.45,54.58,54.58-20.22-2.02-40.43-10.11-54.58-26.28-14.15-16.17-20.22-38.41-18.19-58.62,8.09,10.11,18.19,16.17,30.32,18.19,30.32,6.06,52.56,28.3,56.6,58.62Z"/>
      <path class="cls-1" d="M1048.5,721.22c-2.02-22.24-28.3-44.47-76.82-66.71,32.34,6.06,60.65,22.24,82.88,48.52-10.11-26.28-28.3-46.49-50.54-58.62-24.26-10.11-52.56-12.13-76.82-2.02,14.15,6.06,26.28,16.17,32.34,30.32,16.17,34.37,52.56,52.56,88.95,48.52Z"/>
      <path class="cls-1" d="M1090.95,474.6c0-18.19,20.22-38.41,60.65-58.62-26.28,6.06-50.54,22.24-66.71,44.47,6.06-22.24,20.22-40.43,40.43-50.54,18.19-10.11,42.45-14.15,62.67-6.06-12.13,6.06-20.22,14.15-26.28,26.28-10.11,28.3-40.43,46.49-70.75,44.47Z"/>
      <path class="cls-1" d="M1070.74,573.65c12.13,0,26.28-16.17,40.43-46.49-4.04,20.22-14.15,38.41-30.32,50.54,16.17-6.06,28.3-16.17,36.39-30.32,6.06-14.15,8.09-32.34,2.02-46.49-4.04,8.09-10.11,14.15-20.22,18.19-20.22,10.11-32.34,32.34-28.3,54.58Z"/>
      <path class="cls-1" d="M1173.84,626.21c10.11-14.15,4.04-40.43-18.19-78.84,18.19,20.22,28.3,44.47,30.32,68.73,6.06-18.19,4.04-40.43-4.04-58.62-10.11-18.19-28.3-32.34-46.49-36.39,6.06,10.11,8.09,22.24,6.06,34.37-6.06,28.3,8.09,56.6,32.34,70.75Z"/>
      <path class="cls-1" d="M1141.49,694.94c8.09-12.13,6.06-32.34-10.11-64.69,14.15,16.17,22.24,36.39,20.22,58.62,8.09-16.17,6.06-34.37,0-50.54-6.06-14.15-20.22-26.28-36.39-32.34,4.04,10.11,6.06,20.22,4.04,28.3-6.06,24.26,4.04,48.52,22.24,60.65Z"/>
      <path class="cls-1" d="M569.41,278.52c10.11-16.17,4.04-44.47-18.19-86.92,18.19,22.24,30.32,48.52,32.34,76.82,6.06-20.22,4.04-44.47-6.06-64.69-10.11-20.22-28.3-36.39-50.54-42.45,6.06,12.13,8.09,26.28,6.06,38.41-6.06,32.34,8.09,62.67,36.39,78.84Z"/>
      <path class="cls-1" d="M522.91,510.99c20.22-8.09,34.37-38.41,42.45-88.95,2.02,30.32-6.06,62.67-24.26,88.95,20.22-14.15,36.39-36.39,40.43-62.67,4.04-24.26-2.02-50.54-16.17-70.75-4.04,14.15-10.11,28.3-22.24,38.41-26.28,24.26-34.37,60.65-20.22,95.01Z"/>
      <path class="cls-1" d="M488.55,409.91c20.22-8.09,34.37-36.39,42.45-88.95,2.02,32.34-6.06,62.67-24.26,88.95,20.22-14.15,36.39-36.39,40.43-60.65,4.04-26.28-2.02-52.56-16.17-72.77-2.02,16.17-10.11,28.3-22.24,38.41-26.28,24.26-34.37,62.67-20.22,95.01Z"/>
      <path class="cls-1" d="M601.75,561.53c-10.11-12.13-6.06-36.39,8.09-72.77-14.15,18.19-20.22,42.45-20.22,66.71-8.09-18.19-8.09-38.41,0-56.6,6.06-18.19,20.22-32.34,38.41-38.41-4.04,10.11-4.04,22.24-2.02,32.34,8.09,26.28-2.02,54.58-24.26,68.73Z"/>
      <path class="cls-1" d="M464.29,335.12c-16.17-16.17-16.17-50.54,2.02-105.12-18.19,30.32-26.28,64.69-20.22,97.03-14.15-22.24-18.19-50.54-10.11-76.82,8.09-26.28,26.28-48.52,50.54-60.65-6.06,14.15-4.04,30.32,2.02,46.49,14.15,34.37,4.04,74.8-24.26,99.05Z"/>
      <path class="cls-1" d="M409.71,383.63c-2.02-20.22-26.28-42.45-72.77-64.69,30.32,6.06,58.62,22.24,78.84,48.52-8.09-24.26-24.26-44.47-48.52-56.6-22.24-12.13-48.52-14.15-72.77-4.04,14.15,6.06,24.26,16.17,30.32,30.32,16.17,32.34,48.52,50.54,84.9,46.49Z"/>
      <path class="cls-1" d="M454.18,448.32c-12.13,10.11-36.39,8.09-70.75-4.04,18.19,12.13,40.43,18.19,64.69,16.17-16.17,8.09-36.39,10.11-52.56,4.04-18.19-6.06-32.34-18.19-40.43-36.39,10.11,4.04,22.24,4.04,32.34,2.02,22.24-10.11,50.54-2.02,66.71,18.19Z"/>
      <path class="cls-1" d="M343,413.96c-10.11-14.15-38.41-18.19-80.86-12.13,24.26-10.11,52.56-10.11,76.82-2.02-16.17-14.15-38.41-20.22-58.62-18.19-22.24,4.04-40.43,14.15-52.56,32.34,12.13-2.02,24.26,0,34.37,6.06,26.28,16.17,58.62,14.15,80.86-6.06Z"/>
      <path class="cls-1" d="M312.68,557.48c2.02-22.24-18.19-50.54-60.65-82.88,30.32,12.13,54.58,36.39,68.73,64.69-2.02-26.28-14.15-50.54-34.37-66.71-20.22-16.17-48.52-24.26-74.8-20.22,12.13,8.09,22.24,22.24,24.26,36.39,8.09,36.39,38.41,64.69,76.82,68.73Z"/>
      <path class="cls-1" d="M387.47,583.76c12.13-14.15,10.11-42.45-4.04-82.88,14.15,22.24,20.22,48.52,18.19,74.8,10.11-18.19,12.13-40.43,6.06-60.65-8.09-20.22-22.24-38.41-42.45-46.49,4.04,12.13,4.04,24.26,0,36.39-10.11,28.3,0,58.62,22.24,78.84Z"/>
      <path class="cls-1" d="M375.34,656.54c-2.02-16.17-24.26-28.3-62.67-40.43,24.26,2.02,48.52,10.11,64.69,26.28-8.09-16.17-22.24-30.32-42.45-36.39-18.19-4.04-38.41-2.02-54.58,6.06,10.11,4.04,20.22,10.11,26.28,20.22,16.17,22.24,44.47,32.34,68.73,24.26Z"/>
      <path class="cls-1" d="M397.58,692.92c-12.13,10.11-32.34,8.09-64.69-2.02,18.19,10.11,38.41,16.17,58.62,12.13-14.15,8.09-32.34,10.11-46.49,4.04-16.17-4.04-28.3-16.17-36.39-30.32,10.11,2.02,18.19,4.04,28.3,0,22.24-8.09,44.47-2.02,60.65,16.17Z"/>
      <path class="cls-1" d="M442.05,660.58c-8.09-16.17,0-44.47,26.28-80.86-20.22,18.19-34.37,42.45-38.41,68.73-6.06-20.22,0-42.45,12.13-60.65,12.13-18.19,30.32-30.32,52.56-34.37-8.09,10.11-10.11,22.24-10.11,36.39,2.02,30.32-16.17,58.62-42.45,70.75Z"/>
      <path class="cls-1" d="M486.52,731.33c-6.06-16.17,2.02-38.41,24.26-70.75-18.19,14.15-30.32,36.39-34.37,60.65-4.04-18.19,0-38.41,12.13-54.58,10.11-16.17,26.28-28.3,46.49-30.32-6.06,8.09-10.11,20.22-10.11,32.34,2.02,26.28-12.13,52.56-38.41,62.67Z"/>
      <path class="cls-1" d="M634.09,820.28c-12.13-14.15-12.13-42.45,2.02-84.9-14.15,24.26-20.22,50.54-16.17,76.82-10.11-18.19-14.15-40.43-8.09-60.65,6.06-22.24,20.22-38.41,40.43-48.52-4.04,12.13-4.04,24.26,0,36.39,12.13,28.3,4.04,60.65-18.19,80.86Z"/>
      <path class="cls-1" d="M698.78,848.58c-12.13-10.11-14.15-34.37-8.09-72.77-10.11,20.22-12.13,44.47-6.06,68.73-10.11-16.17-16.17-34.37-12.13-54.58,2.02-18.19,14.15-34.37,28.3-46.49-2.02,12.13,0,22.24,6.06,32.34,12.13,24.26,10.11,52.56-8.09,72.77Z"/>
      <path class="cls-1" d="M773.58,878.9c8.09-12.13,4.04-32.34-12.13-60.65,12.13,14.15,20.22,34.37,22.24,52.56,4.04-14.15,4.04-30.32-4.04-44.47-8.09-14.15-20.22-24.26-36.39-30.32,6.06,8.09,6.06,18.19,6.06,28.3-4.04,20.22,6.06,42.45,24.26,54.58Z"/>
      <path class="cls-1" d="M678.57,680.79c-8.09-12.13-30.32-20.22-68.73-20.22,22.24-4.04,46.49-2.02,66.71,8.09-12.13-14.15-30.32-22.24-48.52-22.24s-36.39,6.06-48.52,20.22c10.11,0,22.24,4.04,30.32,10.11,18.19,16.17,46.49,18.19,68.73,4.04Z"/>
      <path class="cls-1" d="M767.51,731.33c-6.06-14.15-28.3-22.24-66.71-24.26,22.24-4.04,46.49,0,66.71,10.11-12.13-14.15-28.3-22.24-48.52-22.24-18.19-2.02-34.37,4.04-48.52,16.17,10.11,0,20.22,4.04,28.3,12.13,20.22,16.17,46.49,20.22,68.73,8.09Z"/>
      <path class="cls-1" d="M262.14,616.11c2.02-20.22-14.15-44.47-52.56-72.77,26.28,12.13,48.52,32.34,60.65,58.62-2.02-24.26-14.15-44.47-32.34-60.65-16.17-14.15-40.43-20.22-62.67-18.19,10.11,8.09,18.19,20.22,20.22,34.37,8.09,30.32,34.37,54.58,66.71,58.62Z"/>
      <path class="cls-1" d="M298.53,759.63c-10.11-22.24-44.47-36.39-105.12-40.43,36.39-6.06,72.77,0,103.1,18.19-18.19-22.24-44.47-36.39-72.77-38.41-28.3-4.04-56.6,6.06-78.84,24.26,16.17,2.02,32.34,8.09,44.47,20.22,30.32,28.3,72.77,34.37,109.16,16.17Z"/>
      <path class="cls-1" d="M308.63,789.95c-6.06,20.22-34.37,34.37-82.88,44.47,30.32,2.02,60.65-8.09,84.9-26.28-14.15,20.22-34.37,36.39-58.62,40.43-22.24,6.06-48.52,0-68.73-12.13,14.15-4.04,26.28-10.11,36.39-22.24,22.24-26.28,56.6-36.39,88.95-24.26Z"/>
      <path class="cls-1" d="M310.65,903.16c-8.09,16.17-34.37,22.24-78.84,20.22,26.28,8.09,52.56,6.06,76.82-4.04-14.15,14.15-34.37,22.24-56.6,22.24-20.22,0-40.43-8.09-54.58-24.26,12.13,0,24.26-4.04,34.37-10.11,22.24-18.19,54.58-20.22,78.84-4.04Z"/>
      <path class="cls-1" d="M401.62,988.06c-16.17-14.15-48.52-12.13-97.03,6.06,24.26-16.17,56.6-24.26,86.92-22.24-22.24-12.13-48.52-14.15-70.75-4.04-24.26,8.09-44.47,26.28-54.58,48.52,14.15-6.06,30.32-6.06,42.45-2.02,34.37,12.13,70.75,2.02,92.99-26.28Z"/>
      <path class="cls-1" d="M405.66,783.89c-16.17-4.04-38.41,10.11-64.69,42.45,10.11-22.24,30.32-40.43,52.56-50.54-20.22,0-38.41,10.11-52.56,24.26-14.15,16.17-20.22,34.37-20.22,54.58,8.09-8.09,20.22-14.15,30.32-16.17,28.3-4.04,50.54-26.28,54.58-54.58Z"/>
      <path class="cls-1" d="M468.33,798.04c-14.15-2.02-32.34,8.09-54.58,34.37,10.11-18.19,26.28-32.34,44.47-40.43-16.17,0-32.34,8.09-42.45,20.22-12.13,12.13-18.19,28.3-16.17,44.47,6.06-8.09,14.15-12.13,24.26-14.15,22.24-4.04,40.43-22.24,44.47-44.47Z"/>
      <path class="cls-1" d="M533.02,996.15c0,22.24-26.28,46.49-76.82,70.75,34.37-8.09,62.67-26.28,84.9-52.56-8.09,26.28-26.28,48.52-50.54,60.65-24.26,12.13-52.56,14.15-76.82,6.06,14.15-8.09,24.26-18.19,30.32-34.37,16.17-34.37,52.56-54.58,88.95-50.54Z"/>
      <path class="cls-1" d="M638.14,931.46c-22.24,6.06-38.41,36.39-50.54,90.97,0-32.34,10.11-66.71,30.32-92.99-22.24,14.15-40.43,36.39-46.49,62.67-6.06,26.28-2.02,54.58,14.15,76.82,2.02-14.15,12.13-28.3,24.26-38.41,28.3-24.26,40.43-62.67,28.3-99.05Z"/>
      <path class="cls-1" d="M480.46,927.42c-12.13,10.11-40.43,8.09-80.86-8.09,22.24,14.15,48.52,22.24,74.8,20.22-20.22,10.11-42.45,10.11-60.65,2.02-20.22-8.09-36.39-22.24-44.47-42.45,12.13,6.06,24.26,6.06,36.39,2.02,28.3-8.09,58.62,2.02,74.8,26.28Z"/>
      <path class="cls-1" d="M579.51,891.03c-16.17,12.13-48.52,10.11-92.99-10.11,24.26,18.19,52.56,26.28,82.88,24.26-22.24,12.13-46.49,12.13-68.73,4.04-22.24-8.09-40.43-26.28-50.54-48.52,14.15,4.04,28.3,6.06,40.43,2.02,32.34-10.11,68.73,2.02,88.95,28.3Z"/>
      <path class="cls-1" d="M743.26,553.44c-2.02-16.17-20.22-28.3-54.58-38.41,20.22,2.02,40.43,10.11,56.6,24.26-6.06-14.15-20.22-26.28-36.39-32.34-16.17-6.06-34.37-4.04-50.54,4.04,10.11,2.02,18.19,10.11,24.26,18.19,12.13,20.22,38.41,30.32,60.65,24.26Z"/>
    </g>
    <g>
      <path class="cls-1" d="M2083.56,638.3c-15.03,0-28.97-2.54-41.83-7.61-12.86-5.07-23.99-12.16-33.38-21.27-9.39-9.11-16.72-19.76-21.97-31.97-5.26-12.2-7.89-25.54-7.89-40s2.63-27.79,7.89-40c5.26-12.2,12.58-22.86,21.97-31.97,9.39-9.11,20.47-16.2,33.24-21.27,12.77-5.07,26.76-7.61,41.97-7.61s28.87,2.49,41.55,7.46c12.68,4.98,23.75,12.02,33.24,21.13,9.48,9.11,16.8,19.77,21.97,31.97,5.16,12.21,7.75,25.63,7.75,40.28s-2.58,28.08-7.75,40.28c-5.17,12.21-12.49,22.86-21.97,31.97-9.48,9.11-20.56,16.15-33.24,21.13-12.68,4.98-26.53,7.46-41.55,7.46ZM2083.56,613.23c10.89,0,20.99-1.88,30.28-5.63,9.3-3.75,17.37-9.06,24.22-15.92,6.85-6.85,12.2-14.88,16.06-24.08,3.85-9.2,5.77-19.25,5.77-30.14s-1.93-20.94-5.77-30.14c-3.85-9.2-9.2-17.23-16.06-24.08-6.86-6.85-14.93-12.16-24.22-15.92-9.3-3.75-19.39-5.63-30.28-5.63s-21.27,1.88-30.56,5.63c-9.3,3.76-17.42,9.06-24.37,15.92-6.95,6.86-12.35,14.89-16.2,24.08-3.85,9.2-5.77,19.25-5.77,30.14s1.92,20.94,5.77,30.14c3.85,9.2,9.25,17.23,16.2,24.08,6.95,6.86,15.07,12.16,24.37,15.92,9.3,3.76,19.48,5.63,30.56,5.63Z"/>
      <path class="cls-1" d="M2248.06,636.04v-197.18h76.9c17.28,0,32.02,2.72,44.22,8.17,12.2,5.45,21.59,13.34,28.17,23.66,6.57,10.33,9.86,22.63,9.86,36.9s-3.29,26.53-9.86,36.76c-6.58,10.24-15.96,18.12-28.17,23.66-12.21,5.54-26.95,8.31-44.22,8.31h-61.41l12.68-13.24v72.96h-28.17ZM2276.22,565.91l-12.68-14.08h60.56c18.03,0,31.69-3.85,40.98-11.55,9.3-7.7,13.94-18.59,13.94-32.68s-4.65-24.97-13.94-32.67c-9.29-7.7-22.96-11.55-40.98-11.55h-60.56l12.68-14.08v116.62Z"/>
      <path class="cls-1" d="M2498.47,636.04v-172.67h-67.6v-24.51h163.09v24.51h-67.6v172.67h-27.89Z"/>
      <path class="cls-1" d="M2641.56,636.04v-197.18h28.17v197.18h-28.17Z"/>
      <path class="cls-1" d="M2745.78,636.04v-197.18h23.1l88.45,149.01h-12.39l87.32-149.01h23.1l.28,197.18h-27.04l-.28-154.64h6.48l-77.74,130.7h-12.96l-78.31-130.7h7.04v154.64h-27.04Z"/>
      <path class="cls-1" d="M3001.83,636.04l89.29-197.18h27.89l89.57,197.18h-29.58l-79.72-181.4h11.27l-79.72,181.4h-29.01ZM3039.85,586.75l7.61-22.54h110.98l8.17,22.54h-126.76Z"/>
      <path class="cls-1" d="M3254.77,636.04v-197.18h28.17v172.67h106.76v24.51h-134.93Z"/>
      <path class="cls-1" d="M3531.67,636.04v-197.18h23.1l88.45,149.01h-12.39l87.32-149.01h23.1l.28,197.18h-27.04l-.28-154.64h6.48l-77.74,130.7h-12.96l-78.31-130.7h7.04v154.64h-27.04Z"/>
      <path class="cls-1" d="M3817.57,636.04v-197.18h28.17v197.18h-28.17Z"/>
      <path class="cls-1" d="M3921.79,636.04v-197.18h23.1l130.42,161.97h-12.11v-161.97h28.17v197.18h-23.1l-130.42-161.97h12.11v161.97h-28.17Z"/>
      <path class="cls-1" d="M4167.42,636.04v-197.18h83.1c21.03,0,39.58,4.13,55.63,12.39,16.06,8.27,28.54,19.81,37.46,34.65,8.92,14.84,13.38,32.02,13.38,51.55s-4.46,36.72-13.38,51.55c-8.92,14.84-21.41,26.39-37.46,34.65-16.06,8.27-34.6,12.39-55.63,12.39h-83.1ZM4195.59,611.54h53.24c16.34,0,30.47-3.1,42.39-9.3,11.92-6.2,21.17-14.88,27.75-26.06,6.57-11.17,9.86-24.08,9.86-38.73s-3.29-27.79-9.86-38.87c-6.58-11.08-15.82-19.72-27.75-25.91-11.93-6.2-26.06-9.3-42.39-9.3h-53.24v148.17Z"/>
      <path class="cls-1" d="M4474.45,638.3c-15.03,0-29.39-2.3-43.1-6.9-13.71-4.6-24.51-10.56-32.39-17.89l10.42-21.97c7.51,6.58,17.08,12.02,28.73,16.34,11.64,4.32,23.75,6.48,36.34,6.48,11.45,0,20.75-1.31,27.89-3.94,7.13-2.63,12.39-6.24,15.77-10.84,3.38-4.6,5.07-9.81,5.07-15.63,0-6.76-2.21-12.2-6.62-16.34-4.42-4.13-10.14-7.46-17.18-10s-14.79-4.74-23.24-6.62c-8.45-1.88-16.95-4.08-25.49-6.62-8.55-2.54-16.34-5.77-23.38-9.72s-12.72-9.25-17.04-15.92c-4.32-6.66-6.48-15.25-6.48-25.77s2.68-19.48,8.03-28.03c5.35-8.54,13.61-15.4,24.79-20.56,11.17-5.16,25.4-7.75,42.67-7.75,11.45,0,22.82,1.5,34.08,4.51,11.27,3.01,21.03,7.32,29.29,12.96l-9.3,22.54c-8.45-5.63-17.37-9.72-26.76-12.25-9.39-2.53-18.5-3.8-27.32-3.8-11.08,0-20.19,1.41-27.32,4.22-7.14,2.82-12.35,6.58-15.63,11.27-3.29,4.7-4.93,9.96-4.93,15.77,0,6.95,2.21,12.49,6.62,16.62,4.41,4.13,10.14,7.42,17.18,9.86,7.04,2.44,14.79,4.65,23.24,6.62s16.95,4.18,25.49,6.62c8.54,2.44,16.34,5.63,23.38,9.58s12.72,9.2,17.04,15.77c4.32,6.58,6.48,15.03,6.48,25.35s-2.72,19.2-8.17,27.75c-5.45,8.55-13.85,15.4-25.21,20.56-11.36,5.17-25.68,7.75-42.96,7.75Z"/>
    </g>
    <g>
      <path class="cls-1" d="M2223.7,849.76v-98.17h44.04c11.31,0,20.01,2.27,26.08,6.8,6.08,4.54,9.12,10.73,9.12,18.58,0,5.33-1.19,9.82-3.58,13.46-2.38,3.65-5.59,6.45-9.61,8.42-4.02,1.96-8.37,2.94-13.04,2.94l2.52-4.21c5.61,0,10.56.98,14.87,2.95,4.3,1.96,7.71,4.84,10.24,8.62,2.52,3.79,3.79,8.48,3.79,14.09,0,8.42-3.16,14.94-9.47,19.56-6.31,4.63-15.69,6.94-28.12,6.94h-46.84ZM2237.72,838.4h32.26c7.76,0,13.7-1.31,17.81-3.93,4.11-2.62,6.17-6.73,6.17-12.34s-2.06-9.86-6.17-12.48c-4.12-2.62-10.05-3.93-17.81-3.93h-33.52v-11.36h30.01c7.1,0,12.62-1.31,16.55-3.93,3.93-2.62,5.89-6.54,5.89-11.78s-1.96-9.16-5.89-11.78c-3.93-2.62-9.44-3.93-16.55-3.93h-28.75v75.45Z"/>
      <path class="cls-1" d="M2343.89,849.76v-98.17h38.29c8.6,0,15.94,1.36,22.02,4.07,6.08,2.71,10.75,6.64,14.02,11.78,3.27,5.14,4.91,11.27,4.91,18.37s-1.64,13.21-4.91,18.3c-3.27,5.1-7.95,9-14.02,11.71-6.08,2.71-13.42,4.07-22.02,4.07h-30.57l6.31-6.45v36.32h-14.02ZM2357.91,814.84l-6.31-6.87h30.15c8.97,0,15.78-1.94,20.4-5.82,4.63-3.88,6.94-9.33,6.94-16.34s-2.31-12.43-6.94-16.27c-4.63-3.83-11.43-5.75-20.4-5.75h-30.15l6.31-7.01v58.06ZM2409.52,849.76l-24.96-35.62h15.01l25.24,35.62h-15.29Z"/>
      <path class="cls-1" d="M2445,849.76l44.46-98.17h13.88l44.6,98.17h-14.73l-39.69-90.32h5.61l-39.69,90.32h-14.45ZM2463.93,825.22l3.79-11.22h55.25l4.07,11.22h-63.11Z"/>
      <path class="cls-1" d="M2576.54,849.76v-98.17h14.02v98.17h-14.02Z"/>
      <path class="cls-1" d="M2634.04,849.76v-98.17h11.5l64.93,80.64h-6.03v-80.64h14.02v98.17h-11.5l-64.93-80.64h6.03v80.64h-14.02Z"/>
      <path class="cls-1" d="M2836.27,849.76l-32.82-98.17h14.45l30.15,90.6h-7.29l31.27-90.6h12.9l30.57,90.6h-7.01l30.57-90.6h13.32l-32.82,98.17h-14.73l-28.61-84h3.79l-28.75,84h-15.01Z"/>
      <path class="cls-1" d="M2997.54,837.56h57.22v12.2h-71.24v-98.17h69.28v12.2h-55.26v73.77ZM2996.28,793.95h50.49v11.92h-50.49v-11.92Z"/>
      <path class="cls-1" d="M3091.51,849.76v-98.17h14.02v85.97h53.15v12.2h-67.17Z"/>
      <path class="cls-1" d="M3188.83,849.76v-98.17h14.02v85.97h53.15v12.2h-67.17Z"/>
      <path class="cls-1" d="M3286.16,849.76v-98.17h11.5l64.93,80.64h-6.03v-80.64h14.02v98.17h-11.5l-64.93-80.64h6.03v80.64h-14.02Z"/>
      <path class="cls-1" d="M3428.08,837.56h57.22v12.2h-71.24v-98.17h69.28v12.2h-55.26v73.77ZM3426.82,793.95h50.49v11.92h-50.49v-11.92Z"/>
      <path class="cls-1" d="M3550.65,850.89c-7.48,0-14.63-1.14-21.46-3.44-6.83-2.29-12.2-5.26-16.13-8.91l5.19-10.94c3.74,3.27,8.51,5.98,14.3,8.13,5.8,2.15,11.83,3.23,18.09,3.23,5.7,0,10.33-.65,13.88-1.96,3.55-1.31,6.17-3.11,7.85-5.4,1.68-2.29,2.52-4.88,2.52-7.78,0-3.37-1.1-6.08-3.3-8.13-2.2-2.06-5.05-3.72-8.55-4.98-3.51-1.26-7.36-2.36-11.57-3.29-4.21-.93-8.44-2.03-12.69-3.3-4.26-1.26-8.13-2.88-11.64-4.84-3.51-1.96-6.33-4.6-8.48-7.92-2.15-3.32-3.23-7.6-3.23-12.83s1.33-9.7,4-13.95c2.67-4.25,6.78-7.67,12.34-10.24,5.56-2.57,12.64-3.86,21.25-3.86,5.7,0,11.36.75,16.97,2.24,5.61,1.5,10.47,3.65,14.58,6.45l-4.63,11.22c-4.21-2.8-8.65-4.84-13.32-6.1-4.68-1.26-9.21-1.89-13.6-1.89-5.52,0-10.05.7-13.6,2.1-3.55,1.4-6.15,3.27-7.78,5.61-1.64,2.34-2.45,4.96-2.45,7.85,0,3.46,1.1,6.22,3.29,8.27,2.2,2.06,5.05,3.69,8.55,4.91,3.51,1.22,7.36,2.31,11.57,3.3s8.44,2.08,12.69,3.3c4.25,1.22,8.13,2.8,11.64,4.77,3.51,1.96,6.33,4.58,8.48,7.85,2.15,3.27,3.23,7.48,3.23,12.62s-1.36,9.56-4.07,13.81c-2.71,4.26-6.9,7.67-12.55,10.24-5.66,2.57-12.79,3.86-21.39,3.86Z"/>
      <path class="cls-1" d="M3651.77,850.89c-7.48,0-14.63-1.14-21.46-3.44-6.83-2.29-12.2-5.26-16.13-8.91l5.19-10.94c3.74,3.27,8.51,5.98,14.3,8.13,5.8,2.15,11.83,3.23,18.09,3.23,5.7,0,10.33-.65,13.88-1.96,3.55-1.31,6.17-3.11,7.85-5.4,1.68-2.29,2.52-4.88,2.52-7.78,0-3.37-1.1-6.08-3.3-8.13-2.2-2.06-5.05-3.72-8.55-4.98-3.51-1.26-7.36-2.36-11.57-3.29-4.21-.93-8.44-2.03-12.69-3.3-4.26-1.26-8.13-2.88-11.64-4.84-3.51-1.96-6.33-4.6-8.48-7.92-2.15-3.32-3.23-7.6-3.23-12.83s1.33-9.7,4-13.95c2.67-4.25,6.78-7.67,12.34-10.24,5.56-2.57,12.64-3.86,21.25-3.86,5.7,0,11.36.75,16.97,2.24,5.61,1.5,10.47,3.65,14.58,6.45l-4.63,11.22c-4.21-2.8-8.65-4.84-13.32-6.1-4.68-1.26-9.21-1.89-13.6-1.89-5.52,0-10.05.7-13.6,2.1-3.55,1.4-6.15,3.27-7.78,5.61-1.64,2.34-2.45,4.96-2.45,7.85,0,3.46,1.1,6.22,3.29,8.27,2.2,2.06,5.05,3.69,8.55,4.91,3.51,1.22,7.36,2.31,11.57,3.3s8.44,2.08,12.69,3.3c4.25,1.22,8.13,2.8,11.64,4.77,3.51,1.96,6.33,4.58,8.48,7.85,2.15,3.27,3.23,7.48,3.23,12.62s-1.36,9.56-4.07,13.81c-2.71,4.26-6.9,7.67-12.55,10.24-5.66,2.57-12.79,3.86-21.39,3.86Z"/>
      <path class="cls-1" d="M3819.91,850.89c-7.48,0-14.38-1.24-20.69-3.72-6.31-2.48-11.78-5.98-16.41-10.52-4.63-4.53-8.25-9.84-10.87-15.92-2.62-6.08-3.93-12.76-3.93-20.05s1.31-13.98,3.93-20.05c2.62-6.08,6.26-11.38,10.94-15.92,4.67-4.53,10.17-8.04,16.48-10.52,6.31-2.48,13.21-3.72,20.69-3.72s14.56,1.29,20.97,3.86c6.4,2.57,11.85,6.38,16.34,11.43l-9.12,8.84c-3.74-3.93-7.95-6.85-12.62-8.77-4.68-1.92-9.68-2.88-15.01-2.88s-10.64.94-15.36,2.8c-4.72,1.87-8.81,4.49-12.27,7.85-3.46,3.37-6.15,7.36-8.06,11.99-1.92,4.63-2.88,9.65-2.88,15.08s.96,10.45,2.88,15.08c1.92,4.63,4.6,8.62,8.06,11.99,3.46,3.37,7.55,5.98,12.27,7.85,4.72,1.87,9.84,2.8,15.36,2.8s10.33-.96,15.01-2.88c4.67-1.92,8.88-4.88,12.62-8.91l9.12,8.83c-4.49,5.05-9.94,8.88-16.34,11.5-6.41,2.62-13.44,3.93-21.11,3.93Z"/>
      <path class="cls-1" d="M3891.43,849.76v-98.17h14.02v85.97h53.15v12.2h-67.17Z"/>
      <path class="cls-1" d="M3988.76,849.76v-98.17h14.02v98.17h-14.02Z"/>
      <path class="cls-1" d="M4046.26,849.76v-98.17h11.5l64.93,80.64h-6.03v-80.64h14.02v98.17h-11.5l-64.93-80.64h6.03v80.64h-14.02Z"/>
      <path class="cls-1" d="M4174.16,849.76v-98.17h14.02v98.17h-14.02Z"/>
      <path class="cls-1" d="M4275.55,850.89c-7.48,0-14.38-1.24-20.69-3.72-6.31-2.48-11.78-5.98-16.41-10.52-4.63-4.53-8.25-9.84-10.87-15.92-2.62-6.08-3.93-12.76-3.93-20.05s1.31-13.98,3.93-20.05c2.62-6.08,6.26-11.38,10.94-15.92,4.67-4.53,10.17-8.04,16.48-10.52,6.31-2.48,13.21-3.72,20.69-3.72s14.56,1.29,20.97,3.86c6.4,2.57,11.85,6.38,16.34,11.43l-9.12,8.84c-3.74-3.93-7.95-6.85-12.62-8.77-4.68-1.92-9.68-2.88-15.01-2.88s-10.64.94-15.36,2.8c-4.72,1.87-8.81,4.49-12.27,7.85-3.46,3.37-6.15,7.36-8.06,11.99-1.92,4.63-2.88,9.65-2.88,15.08s.96,10.45,2.88,15.08c1.92,4.63,4.6,8.62,8.06,11.99,3.46,3.37,7.55,5.98,12.27,7.85,4.72,1.87,9.84,2.8,15.36,2.8s10.33-.96,15.01-2.88c4.67-1.92,8.88-4.88,12.62-8.91l9.12,8.83c-4.49,5.05-9.94,8.88-16.34,11.5-6.41,2.62-13.44,3.93-21.11,3.93Z"/>
    </g>
  </g>
</svg>